<?xml version="1.0" standalone="no"?><!DOCTYPE svg PUBLIC "-//W3C//DTD SVG 1.1//EN" "http://www.w3.org/Graphics/SVG/1.1/DTD/svg11.dtd"><svg t="1647170721253" class="icon" viewBox="0 0 1024 1024" version="1.1" xmlns="http://www.w3.org/2000/svg" p-id="3650" xmlns:xlink="http://www.w3.org/1999/xlink" width="128" height="128"><defs><style type="text/css"></style></defs><path d="M34.178194 1023.926857a35.401143 35.401143 0 0 1-34.157714-36.571428 35.401143 35.401143 0 0 1 34.157714-36.571429h955.757715a35.401143 35.401143 0 0 1 34.157714 36.571429 35.401143 35.401143 0 0 1-34.157714 36.571428z m185.270857-146.285714a146.285714 146.285714 0 0 1-146.285714-146.285714v-585.142858a146.285714 146.285714 0 0 1 146.285714-146.285714h585.142858a146.285714 146.285714 0 0 1 146.285714 146.285714v585.142858a146.285714 146.285714 0 0 1-146.285714 146.285714zM146.306194 576.073143v155.282286a73.142857 73.142857 0 0 0 73.142857 73.142857h585.142858a73.142857 73.142857 0 0 0 73.142857-73.142857V641.755429H559.197623l-226.742857-190.537143z m430.592-7.314286H877.734766V146.212571a73.142857 73.142857 0 0 0-73.142857-73.142857H219.449051a73.142857 73.142857 0 0 0-73.142857 73.142857v347.209143l192.512-120.978285zM512.02048 292.498286a146.285714 146.285714 0 0 1 146.285714-146.285715 146.285714 146.285714 0 0 1 146.285715 146.285715 146.285714 146.285714 0 0 1-146.285715 146.285714 146.285714 146.285714 0 0 1-146.285714-146.285714z m73.142857 0a73.142857 73.142857 0 0 0 73.142857 73.142857 73.142857 73.142857 0 0 0 73.142857-73.142857 73.142857 73.142857 0 0 0-73.142857-73.142857 73.142857 73.142857 0 0 0-73.142857 73.142857z" fill="#6A6A6A" p-id="3651"></path></svg>